<?xml version="1.0" encoding="UTF-8"?>
<svg width="24px" height="23px" viewBox="0 0 24 23" version="1.1" xmlns="http://www.w3.org/2000/svg" xmlns:xlink="http://www.w3.org/1999/xlink">
    <!-- Generator: Sketch 51 (57462) - http://www.bohemiancoding.com/sketch -->
    <title>Camera-1</title>
    <desc>Created with Sketch.</desc>
    <defs></defs>
    <g id="小程序2" stroke="none" stroke-width="1" fill="none" fill-rule="evenodd">
        <g id="培训班详情" transform="translate(-10.000000, -272.000000)">
            <rect fill="#ffffff" x="0" y="0" width="375" height="667"></rect>
            <g id="Group-6" transform="translate(0.000000, 261.000000)">
                <g id="Group-4" transform="translate(10.000000, 10.000000)">
                    <g id="Camera-1">
                        <rect id="Container" x="0" y="0.0142709353" width="24" height="23.7525773"></rect>
                        <g id="Shape" transform="translate(3.250000, 5.443299)" stroke="#00C58C" stroke-linecap="round" stroke-linejoin="round">
                            <path d="M6.5465,3.74766186 C8.4552,2.85562887 11.260675,3.01561237 12.484675,5.42682062 C13.267875,6.9696 12.855825,9.7296 10.575975,10.8053196 C8.554175,11.7592577 5.4414,10.9330887 4.63775,8.39153814 C3.834175,5.84998763 5.53875,4.21863093 6.5465,3.74766186 L6.5465,3.74766186 Z"></path>
                            <path d="M6.41975,7.86952577 C5.974075,6.45993402 6.91945,5.55515876 7.4784,5.2939299 C7.74305,5.1702433 8.038775,5.0830268 8.344125,5.04264742"></path>
                            <path d="M2.09905,3.87716289 L2.06965,8.88885773"></path>
                            <path d="M14.691575,4.49641237 L14.358225,4.53806237" stroke-width="2"></path>
                            <path d="M5.1115,1.91960412 C4.6115,1.91960412 0.4624,1.89847423 0.2124,2.14589691 C-0.0376,2.39331959 -0.204275,10.8881567 0.8374,12.5376495 C1.122375,12.9888742 15.7749,13.0943505 16.2124,12.7850722 C16.6499,12.4757938 17.0874,2.45517526 16.8374,2.20775258 C16.5874,1.9603299 12.31525,1.87687423 11.81525,1.87687423 C11.81525,1.87687423 10.577825,0.281764948 10.4856,0.164387629 C10.393375,0.0470103093 6.89045,0.0702927835 6.75105,0.163051546 C6.6117,0.255810309 5.1115,1.91960412 5.1115,1.91960412 L5.1115,1.91960412 Z" stroke-width="2"></path>
                        </g>
                    </g>
                </g>
            </g>
        </g>
    </g>
</svg>