<?xml version="1.0" encoding="UTF-8"?>
<svg width="375px" height="115px" viewBox="0 0 375 115" version="1.1" xmlns="http://www.w3.org/2000/svg" xmlns:xlink="http://www.w3.org/1999/xlink">
    <!-- Generator: Sketch 51 (57462) - http://www.bohemiancoding.com/sketch -->
    <title>Group 5</title>
    <desc>Created with Sketch.</desc>
    <defs>
        <rect id="path-1" x="0" y="0" width="375" height="115"></rect>
    </defs>
    <g id="小程序2" stroke="none" stroke-width="1" fill="none" fill-rule="evenodd">
        <g id="培训班详情" transform="translate(0.000000, -58.000000)">
            <rect fill="#ffffff" x="0" y="0" width="375" height="667"></rect>
            <g id="Group-5" transform="translate(0.000000, 58.000000)">
                <mask id="mask-2" fill="white">
                    <use xlink:href="#path-1"></use>
                </mask>
                <use id="Rectangle-5" fill="#FFFFFF" xlink:href="#path-1"></use>
                <g id="Group-2" opacity="0.404241071" mask="url(#mask-2)">
                    <g transform="translate(-317.000000, -4.000000)">
                        <g id="Phone-1" transform="translate(660.805265, 99.104102) rotate(20.000000) translate(-660.805265, -99.104102) translate(640.805265, 78.604102)">
                            <rect id="Container" x="0" y="0.31714245" width="40" height="40"></rect>
                            <g id="Shape" transform="translate(3.333333, 7.916667)" stroke="#E0E6ED" stroke-linecap="round" stroke-linejoin="round" stroke-width="2">
                                <path d="M10.287125,11.4161667 C10.6451667,10.1277083 10.8615,7.44579167 11.2496667,7.24445833 C11.6378333,7.043125 13.0964583,6.95966667 13.4435417,7.24445833 C13.790625,7.52920833 14.2767083,10.5828333 14.2767083,10.5828333 C14.2767083,10.5828333 17.4017083,10.5847917 17.818375,10.5153333 C18.0100833,10.483375 18.2077917,7.58466667 18.5339167,7.24445833 C18.8600417,6.90420833 20.5880417,6.89025 20.9045833,7.24445833 C21.2211667,7.59866667 21.5665417,11.139125 21.7766667,11.4161667 C21.9766667,11.679875 30.556375,20.485625 30.8739167,21.070875 C31.1914583,21.6561667 28.6250833,25.1016667 27.9786667,25.447375 C27.33225,25.793125 6.06920833,25.747625 5.52016667,25.5620417 C4.971125,25.3764583 1.85325,22.249375 1.800125,21.5708333 C1.747,20.8922917 8.02666667,13.432 10.287125,11.4161667 L10.287125,11.4161667 Z"></path>
                                <path d="M15.596125,13.293125 C20.3182917,13.2204583 22.0544583,16.2097917 20.5266667,17.945875 C18.8348333,19.8684583 12.471125,19.682 10.6655833,18.0153333 C8.86,16.3486667 11.08225,13.3625417 15.596125,13.293125 L15.596125,13.293125 Z"></path>
                                <path d="M5.55591667,21.986125 L22.5370833,22.152775"></path>
                                <path d="M1.250375,5.59720833 L3.99891667,5.76390833"></path>
                                <path d="M24.2400833,5.88433333 L27.5369583,6.19528333"></path>
                                <path d="M15.596125,3.918125 C19.90175,3.983375 23.9989167,4.61254167 24.83225,5.86254167 C23.58225,6.76533333 24.20725,9.33479167 24.346125,10.0986667 C24.485,10.8625417 31.1516667,11.418125 31.9155833,10.5847917 C32.6794583,9.75145833 32.61,5.793125 31.4294583,4.40420833 C30.2489167,3.01533333 27.4014167,0.177416667 15.6655833,0.0986666667 C5.31833333,0.0292083333 1.91558333,2.87645833 1.08225,3.98754167 C0.573625,4.66570833 -0.16775,8.570875 0.45725,9.543125 C1.08225,10.5153333 6.56833333,10.5153333 7.471125,9.820875 C8.37391667,9.12645833 8.096125,6.418125 7.67945833,5.932 C9.346125,4.75145833 11.0127917,3.84866667 15.596125,3.918125 L15.596125,3.918125 Z"></path>
                            </g>
                        </g>
                        <g id="Clock-1" transform="translate(667.000000, 3.000000)">
                            <rect id="Container" x="0" y="0" width="40" height="40"></rect>
                            <g transform="translate(4.583333, 5.416667)" stroke="#E0E6ED" stroke-linecap="round" stroke-linejoin="round" stroke-width="2">
                                <path d="M7.97445833,1.935 C14.909625,-1.33995833 25.1030833,-0.752541667 29.5505417,8.09958333 C32.3962083,13.7635417 30.8990417,23.8963333 22.615375,27.8455417 C15.269375,31.3477083 3.95920833,28.314625 1.03929167,18.9839583 C-1.880625,9.65329167 4.31291667,3.66408333 7.97445833,1.935 L7.97445833,1.935 Z" id="Shape"></path>
                                <path d="M15.0729167,7.38333333 C15.0780833,9.01125 15.096125,15.2010417 15.2564167,15.4272083 C15.400125,15.6299583 19.568125,18.0245417 20.3414167,18.3555417" id="Shape"></path>
                                <path d="M14.67475,3.98058333 C14.67475,4.53088333 14.67475,4.53088333 14.67475,3.98058333" id="Shape"></path>
                                <path d="M9.74420833,23.2166667 C9.74420833,23.7670667 9.74420833,23.7670667 9.74420833,23.2166667" id="Shape"></path>
                                <path d="M5.36920833,19.3277917 C5.36920833,19.8780917 5.36920833,19.8780917 5.36920833,19.3277917" id="Shape"></path>
                                <path d="M4.11920833,14.3277917 C4.11920833,14.8780917 4.11920833,14.8780917 4.11920833,14.3277917" id="Shape"></path>
                                <path d="M5.64695833,9.46666667 C5.64695833,10.0170667 5.64695833,10.0170667 5.64695833,9.46666667" id="Shape"></path>
                                <path d="M9.39695833,6.13333333 C9.39695833,6.68373333 9.39695833,6.68373333 9.39695833,6.13333333" id="Shape"></path>
                                <path d="M15.5080833,25.02225 C15.5080833,25.57255 15.5080833,25.57255 15.5080833,25.02225" id="Shape"></path>
                                <polygon id="Shape-Copy-13" points="15.5085077 3.42106782 15.4183438 3.17106782 15.5085077 2.92106782 15.7871962 2.92106782 15.9183438 3.17106782 15.7930118 3.42106782"></polygon>
                                <polygon id="Shape-Copy-14" points="15.5085077 26.3590052 15.4183438 26.1090052 15.5085077 25.8590052 15.7871962 25.8590052 15.9183438 26.1090052 15.7930118 26.3590052"></polygon>
                                <polygon id="Shape-Copy-16" points="3.40676728 14.2689167 3.31660335 14.0189167 3.40676728 13.7689167 3.68545581 13.7689167 3.81660335 14.0189167 3.69127144 14.2689167"></polygon>
                                <polygon id="Shape-Copy-17" points="9.28114295 5.10225 9.19097901 4.85225 9.28114295 4.60225 9.55983147 4.60225 9.69097901 4.85225 9.5656471 5.10225"></polygon>
                                <polygon id="Shape-Copy-18" points="5.52676862 9.26486516 5.43660469 9.01486516 5.52676862 8.76486516 5.80545715 8.76486516 5.93660469 9.01486516 5.81127278 9.26486516"></polygon>
                                <polygon id="Shape-Copy-19" points="4.72140352 19.6889167 4.63123958 19.4389167 4.72140352 19.1889167 5.00009204 19.1889167 5.13123958 19.4389167 5.00590767 19.6889167"></polygon>
                                <polygon id="Shape-Copy-20" points="8.91355456 24.2159674 8.82339062 23.9659674 8.91355456 23.7159674 9.19224308 23.7159674 9.32339062 23.9659674 9.19805872 24.2159674"></polygon>
                            </g>
                        </g>
                        <g id="Hourglass" transform="translate(566.986422, 95.986422) rotate(13.000000) translate(-566.986422, -95.986422) translate(546.986422, 75.986422)">
                            <rect id="Container" x="0" y="0" width="40" height="40"></rect>
                            <g id="Shape" transform="translate(8.333333, 6.666667)" stroke="#E0E6ED" stroke-linecap="round" stroke-linejoin="round" stroke-width="2">
                                <path d="M0.404541667,0.424291667 C7.959875,0.899416667 15.4914167,0.966791667 23.0365417,0.272791667"></path>
                                <path d="M0.404541667,26.4329608 C4.37418637,26.2211957 19.5825189,26.2211957 23.0365417,26.8036079" id="Shape-Copy"></path>
                                <path d="M4.43229167,7.507625 C9.71008333,8.06302113 13.4600833,8.26133948 19.2934167,7.54727915"></path>
                                <path d="M3.21704167,25.8583333 C9.675375,18.4625 14.4149583,18.8791667 20.612875,25.5458333"></path>
                                <path d="M2.644125,1.01458333 C2.623875,7.786125 6.237875,12.0041667 11.706625,13.3583333 C17.175375,14.7125 21.07275,20.2775833 21.081625,25.3895833"></path>
                                <path d="M21.0815417,1.01458333 C21.1017917,7.786125 17.4877917,12.0041667 12.0190417,13.3583333 C6.55029167,14.7125 2.65291667,20.2775833 2.64404167,25.3895833"></path>
                                <path d="M11.8732917,13.3583333 L11.8107917,20.18125"></path>
                                <path d="M8.14758333,24.1742917 L9.675375,22.99375"></path>
                                <path d="M11.37675,24.3132083 L12.93925,23.0284583"></path>
                                <path d="M14.7100833,24.2090417 L15.3350833,23.61875"></path>
                                <path d="M13.9809167,10.382625 L14.3559167,10.007625"></path>
                                <path d="M11.4114583,10.5284583 L11.9114583,9.97291667"></path>
                                <path d="M9.29341667,10.0145833 L9.50176667,9.76458333"></path>
                            </g>
                        </g>
                        <g id="Cake" transform="translate(581.875800, 25.218612) rotate(-16.000000) translate(-581.875800, -25.218612) translate(561.875800, 4.718612)">
                            <rect id="Container" x="0" y="0.302036551" width="40" height="40"></rect>
                            <g id="Shape" transform="translate(5.416667, 5.000000)" stroke="#E0E6ED" stroke-linecap="round" stroke-linejoin="round" stroke-width="2">
                                <path d="M0.677125,17.810375 C0.667541667,18.9334583 0.346333333,26.7639583 0.835208333,27.56525 C3.054375,31.2027917 25.4155,31.063875 28.6422917,27.637875 C29.2745417,26.966625 28.9362083,18.9689167 28.8100417,17.547"></path>
                                <path d="M0.137708333,17.313875 C1.24883333,17.1055417 2.08216667,19.8833333 5.13770833,19.188875 C7.57554167,18.6348333 7.312625,17.03175 9.23491667,16.3416667 C11.94325,15.3694167 12.2210833,20.4157083 15.3460417,19.6055417 C17.2210417,19.1194583 17.5437083,16.904625 19.5821667,16.1333333 C22.151625,15.1610833 22.4034167,19.206625 24.8599583,18.425 C26.38775,17.938875 27.9849583,16.4110833 29.3738333,17.1055417 C29.929375,13.0777917 25.9710417,8.563875 14.4432917,8.70279167 C2.9155,8.84170833 -0.55675,14.1194583 0.137708333,17.313875 L0.137708333,17.313875 Z"></path>
                                <path d="M0.971041667,22.4527917 C6.80325,24.534125 20.27525,25.167625 28.3321667,22.4527917"></path>
                                <path d="M14.5312574,11.411125 C15.1237611,11.2027917 14.2349167,3.911125 14.2349167,3.911125"></path>
                                <path d="M13.5405,0.300041667 C13.8897917,0.241791667 17.0127083,2.661125 16.2488333,4.60558333 C15.6014583,6.2535 13.3321667,6.27225 12.2905,4.7445 C11.2488333,3.21675 13.1238333,0.369458333 13.5405,0.300041667 L13.5405,0.300041667 Z"></path>
                                <path d="M22.1354241,11.9667083 C22.7279278,11.758375 21.8390833,4.46670833 21.8390833,4.46670833"></path>
                                <path d="M21.1446667,0.855541667 C21.4939583,0.797375 24.616875,3.21666667 23.853,5.161125 C23.205625,6.80904167 20.9363333,6.82779167 19.8946667,5.30004167 C18.853,3.77220833 20.728,0.925041667 21.1446667,0.855541667 L21.1446667,0.855541667 Z"></path>
                                <path d="M7.13542407,12.383375 C7.72792778,12.1750417 6.83908333,4.883375 6.83908333,4.883375"></path>
                                <path d="M6.14466667,1.27220833 C6.49395833,1.21404167 9.616875,3.63333333 8.853,5.57779167 C8.205625,7.22570833 5.93633333,7.24445833 4.89466667,5.71670833 C3.853,4.188875 5.728,1.34170833 6.14466667,1.27220833 L6.14466667,1.27220833 Z"></path>
                            </g>
                        </g>
                        <g id="Chess-2" transform="translate(392.805265, 37.104102) rotate(20.000000) translate(-392.805265, -37.104102) translate(372.805265, 16.604102)">
                            <rect id="Container" x="0" y="0.302036551" width="40" height="40"></rect>
                            <g id="Shape" transform="translate(6.666667, 3.750000)" stroke="#E0E6ED" stroke-linecap="round" stroke-linejoin="round" stroke-width="2">
                                <path d="M11.7812917,17.9594583 C11.75025,19.2410417 9.80120833,24.168625 6.45445833,26.8375833 C5.67291667,26.8485 5.077625,26.7975417 4.4815,27.1664167 C3.885375,27.5352083 4.756375,31.6577917 5.33641667,31.967125 C5.58308333,32.0986667 23.5241667,32.1973333 23.8529583,31.901375 C24.4123333,31.3979167 25.8424167,27.3637083 24.5764167,26.8375833 C22.382625,25.925875 20.3963333,24.4043333 22.5008333,22.0367917 C21.5425,16.8826667 24.9870833,14.6657917 24.6862917,9.43195833 C24.3575,3.71054167 19.8418333,-0.337625 10.832125,0.0569583333 C10.1679583,0.0860416667 11.0578333,2.37345833 10.4380417,4.38108333 C9.15070833,3.228375 7.04470833,2.6025 5.53375,3.03108333 C5.66529167,3.75445833 7.638125,5.858875 8.23008333,7.04266667 C7.80241667,7.20279167 5.59945833,9.212875 5.204875,9.73895833 C4.72983333,10.3725 4.09554167,12.4020417 3.88966667,12.764125 C3.07354167,14.1991667 0.326333333,17.4638333 0.206916667,18.4197917 C0.075375,19.4720417 2.561125,22.919 3.823875,22.6944583 C5.08670833,22.4698333 5.99408333,20.4585 6.58604167,19.998125 C7.177875,19.53775 11.6498333,19.998125 13.6226667,15.1974167"></path>
                                <path d="M7.76966667,11.8434167 C8.09854167,11.3173333 8.64695833,10.9695417 9.01916667,10.7254583"></path>
                                <path d="M13.82,4.346375 C21.908875,4.346375 21.38275,12.5010833 20.3963333,15.4604583"></path>
                                <path d="M1.25904167,19.8008333 L2.04825,19.0774583"></path>
                                <path d="M6.9805,26.8638917 L16.976625,26.7060417"></path>
                            </g>
                        </g>
                        <g id="Diamond" transform="translate(454.255943, 77.661522) rotate(10.000000) translate(-454.255943, -77.661522) translate(434.255943, 57.161522)">
                            <rect id="Container" x="0" y="0.0515782174" width="40" height="40"></rect>
                            <g id="Shape" transform="translate(4.583333, 9.583333)" stroke="#E0E6ED" stroke-linecap="round" stroke-linejoin="round" stroke-width="2">
                                <path d="M5.6425,0.704355236 C12.9870833,0.279157718 24.2256667,-0.167365632 24.792875,0.704355236"></path>
                                <path d="M29.9939167,6.82779167 C24.766875,7.50858333 4.41979167,7.71691667 0.364208333,6.82779167"></path>
                                <path d="M0.364166667,6.82779167 C-0.0525,6.61945833 4.34366667,0.884208333 5.6425,0.393916667 C6.29475,0.147291667 8.69791667,6.91125 9.61508333,6.82779167 C10.531,6.74475 14.2114167,0.426416667 15.0407083,0.393916667 C16.016875,0.355625 19.003125,6.88358333 20.1330833,6.82779167 C21.025,6.78383333 23.9335417,0.355625 24.7929167,0.393916667 C26.2500417,0.458208333 29.29975,5.43908333 29.9939167,6.82779167"></path>
                                <path d="M0.364166667,6.82779167 C0.636791667,7.43241667 13.7585417,20.8121667 15.4374167,22.281875 C18.2442083,20.8186667 27.5614583,9.32491667 29.993875,6.82779167 C30.0475833,6.78345833 30.0427083,6.778125 29.993875,6.82779167"></path>
                                <path d="M9.61508333,6.82779167 C10.5383333,8.911125 15.435,22.2525833 15.4374167,22.281875"></path>
                                <path d="M20.1330417,6.82779167 C20.4727917,8.28454167 15.9130833,21.9555417 15.4374167,22.281875"></path>
                            </g>
                        </g>
                        <g id="Note-1" transform="translate(632.637825, 61.637825) rotate(45.000000) translate(-632.637825, -61.637825) translate(612.637825, 41.137825)">
                            <rect id="Container" x="0" y="0.31714245" width="40" height="40"></rect>
                            <g id="Shape" transform="translate(7.500000, 7.500000)" stroke="#E0E6ED" stroke-linecap="round" stroke-linejoin="round" stroke-width="2">
                                <path d="M2.1875,18.5644583 C3.95720833,17.8325833 6.55833333,17.963875 7.69329167,19.9420833 C8.4195,21.2078333 8.03741667,23.47225 5.92358333,24.3547917 C4.049,25.1374167 1.16283333,24.4595833 0.417708333,22.3744583 C-0.327333333,20.2892917 1.25304167,18.950875 2.1875,18.5644583 L2.1875,18.5644583 Z"></path>
                                <path d="M6.42529167,3.14475 C5.93041667,3.83441667 6.04920833,7.841625 6.51745833,8.19433333 C6.98570833,8.54704167 20.9325417,5.7465 21.366,5.09966667 C21.7994583,4.45283333 21.7155417,0.920208333 21.1645,0.29975 C20.6134583,-0.320708333 6.92016667,2.45508333 6.42529167,3.14475 L6.42529167,3.14475 Z"></path>
                                <path d="M7.98175,21.4269167 L7.10175,8.47870833"></path>
                                <path d="M16.298625,15.673125 C18.0968333,14.94125 20.7399583,15.0725417 21.893125,17.05075 C22.6310417,18.3165 22.242875,20.5809167 20.0949167,21.4634167 C18.190125,22.2460833 15.2574583,21.56825 14.5004167,19.483125 C13.7432917,17.3979583 15.3492083,16.0595417 16.298625,15.673125 L16.298625,15.673125 Z"></path>
                                <path d="M22.187,18.5355833 L21.3070833,4.95883333"></path>
                            </g>
                        </g>
                        <g id="Crossroads" transform="translate(306.000000, 30.000000)">
                            <rect id="Container" x="0" y="0.344688016" width="40" height="40"></rect>
                            <g id="Shape" transform="translate(1.250000, 5.833333)" stroke="#E0E6ED" stroke-linecap="round" stroke-linejoin="round" stroke-width="2">
                                <path d="M15.8519583,0.887291667 C15.49675,1.45229167 15.7115833,27.464375 15.8519583,28.2460417 C15.9923333,29.0277083 21.5389167,29.3627083 21.7495833,28.6927083 C21.9601667,28.0227083 22.276125,1.334 21.9250417,0.552291667 C21.5739583,-0.229416667 16.343375,0.105583333 15.8519583,0.887291667 L15.8519583,0.887291667 Z"></path>
                                <path d="M15.341375,3.98054167 C15.341375,3.98054167 5.61916667,3.98054167 5.13304167,4.11945833 C4.647,4.25833333 0.272,8.77220833 0.272,9.32779167 C0.272,9.88333333 4.022,12.4527917 4.43866667,12.8 C4.85533333,13.1472083 15.341375,13.286125 15.341375,13.286125"></path>
                                <path d="M22.147,7.313875 C22.147,7.313875 31.8692083,7.313875 32.3553333,7.45279167 C32.841375,7.59166667 37.216375,12.1055417 37.216375,12.661125 C37.216375,13.2166667 33.466375,15.786125 33.0497083,16.1333333 C32.6330417,16.4805417 22.147,16.6194583 22.147,16.6194583"></path>
                                <path d="M6.24420833,7.67501667 L12.4247083,7.59166667"></path>
                                <path d="M25.4803333,5.99445833 L31.7997083,5.99445833"></path>
                            </g>
                        </g>
                        <g id="Bug" transform="translate(380.000000, 90.500000) rotate(-30.000000) translate(-380.000000, -90.500000) translate(360.000000, 70.000000)">
                            <rect id="Container" x="0" y="0.344688016" width="40" height="40"></rect>
                            <g id="Shape" transform="translate(6.250000, 4.583333)" stroke="#E0E6ED" stroke-linecap="round" stroke-linejoin="round" stroke-width="2">
                                <path d="M20.919,14.3647917 C21.9244583,13.901375 22.3824167,7.744875 13.276875,7.86979167 C4.17145833,7.99466667 5.63475,13.9900833 6.28520833,14.4897083 C6.93566667,14.9893333 20.106,14.7395 20.919,14.3647917 L20.919,14.3647917 Z"></path>
                                <path d="M17.0004167,8.12666667 C17.5240833,7.79616667 17.762625,3.40516667 13.02,3.49425 C8.277375,3.58333333 9.03958333,7.85941667 9.37833333,8.21575"></path>
                                <path d="M15.792625,3.911125 C15.792625,3.911125 17.355125,0.786125 20.3759583,0.161125"></path>
                                <path d="M10.480125,3.598625 C10.480125,3.598625 9.95929167,0.681958333 6.83429167,0.0569583333"></path>
                                <path d="M5.89679167,17.1402917 C5.89679167,24.223625 9.76216667,31.3036667 13.7092917,31.6194583 C16.3134583,31.8277917 21.105125,27.661125 20.792625,16.9319583"></path>
                                <path d="M13.1884583,14.7444583 L13.5634583,27.7652917"></path>
                                <path d="M23.7092917,10.2652917 L26.0009583,7.45279167"></path>
                                <path d="M24.230125,14.661125 L27.1467917,14.536125"></path>
                                <path d="M24.1259583,18.3902917 C24.1259583,18.3902917 25.3759583,20.0569583 25.480125,21.098625 C25.5842917,22.1402917 23.8134583,26.8277917 23.8134583,26.8277917"></path>
                                <path d="M3.605125,10.2652917 L1.31345833,7.45279167"></path>
                                <path d="M3.08429167,14.661125 L0.167625,14.536125"></path>
                                <path d="M3.18845833,18.3902917 C3.18845833,18.3902917 1.93845833,20.0569583 1.83429167,21.098625 C1.730125,22.1402917 3.50095833,26.8277917 3.50095833,26.8277917"></path>
                            </g>
                        </g>
                        <g id="Palette" transform="translate(503.000000, 37.000000)">
                            <rect id="Container" x="0" y="0.389121101" width="40" height="40"></rect>
                            <g id="Shape" transform="translate(5.416667, 4.583333)" stroke="#E0E6ED" stroke-linecap="round" stroke-linejoin="round" stroke-width="2">
                                <path d="M11.3176667,1.211125 C15.9652083,-0.74825 22.3027917,0.54875 20.4059167,5.19216667 C19.829125,6.60341667 17.4430833,9.18645833 19.4299583,10.9510833 C20.8902083,12.2480833 24.019,10.954625 25.7357083,11.978 C28.5249167,13.6407083 29.0860417,17.944 27.7062083,21.5021667 C25.3401667,27.60375 20.289625,30.76175 14.8156667,30.9442083 C4.96316667,31.272625 -0.784208333,22.9800417 0.283208333,15.0979583 C1.42283333,6.68170833 8.496,2.40066667 11.3176667,1.211125 L11.3176667,1.211125 Z"></path>
                                <path d="M11.2225417,5.72658333 C12.046125,5.27025 13.2565417,5.35208333 13.7847083,6.58558333 C14.122625,7.37483333 13.9449167,8.78679167 12.961125,9.33708333 C12.0888333,9.82508333 10.7456667,9.40245833 10.3989583,8.10225 C10.0521667,6.80208333 10.7876667,5.9675 11.2225417,5.72658333 L11.2225417,5.72658333 Z"></path>
                                <path d="M6.24208333,11.9115 C7.39625,11.4473333 9.092625,11.5305833 9.83279167,12.7852083 C10.3064167,13.5879583 10.0572083,15.0240417 8.678625,15.58375 C7.45608333,16.080125 5.573875,15.65025 5.08791667,14.3278333 C4.60195833,13.0054167 5.63275,12.1565417 6.24208333,11.9115 L6.24208333,11.9115 Z"></path>
                                <path d="M7.83304167,19.5568333 C9.191875,18.9210417 11.1890417,19.0350833 12.0605417,20.7535833 C12.6180833,21.853125 12.3247083,23.82025 10.7017083,24.5869167 C9.26241667,25.2667917 7.04633333,24.678 6.47420833,22.8665833 C5.90208333,21.0552083 7.11566667,19.8925 7.83304167,19.5568333 L7.83304167,19.5568333 Z"></path>
                                <path d="M17.777625,18.1774583 C19.3252917,17.3466667 21.6001667,17.4956667 22.5927917,19.7413333 C23.227875,21.1782083 22.8937083,23.7487083 21.0450417,24.7505417 C19.405625,25.639 16.8815417,24.8695417 16.229875,22.5025 C15.5782083,20.1354583 16.9604583,18.6160833 17.777625,18.1774583 L17.777625,18.1774583 Z"></path>
                            </g>
                        </g>
                        <g id="Book-3" transform="translate(465.830881, 23.169119) rotate(10.000000) translate(-465.830881, -23.169119) translate(445.830881, 3.169119)">
                            <rect id="Container" x="0" y="0.385109543" width="40" height="39.5876289"></rect>
                            <g id="Shape" transform="translate(4.583333, 8.659794)" stroke="#E0E6ED" stroke-linecap="round" stroke-linejoin="round" stroke-width="2">
                                <path d="M15.598875,22.2213196 C19.1769583,16.7353402 27.703375,22.0484948 30.347125,21.8921649 C31.0096667,20.2463505 30.2145833,3.78837113 29.5519583,2.47171134 C26.5462917,3.04606186 20.142875,-3.5628866 15.504625,2.80086598"></path>
                                <path d="M18.7337083,6.34503093 C20.087875,5.31410309 22.1712083,4.90173196 25.9212083,6.55121649"></path>
                                <path d="M18.7337083,10.4687423 C20.2962083,9.33472165 22.275375,9.23162887 24.9837083,10.3656495"></path>
                                <path d="M18.7337083,14.6955464 C20.1920417,13.2522474 22.1712083,13.2522474 25.9212083,14.901732"></path>
                                <path d="M15.2936667,22.2213196 C11.7155833,16.7353402 3.18916667,22.0484948 0.545416667,21.8921649 C-0.117208333,20.2463505 0.677958333,3.78837113 1.34058333,2.47171134 C4.34625,3.04606186 10.7496667,-3.5628866 15.3879167,2.80086598"></path>
                                <path d="M12.1588333,6.34503093 C10.92125,5.10791753 8.72133333,4.90173196 4.97133333,6.55121649"></path>
                                <path d="M12.1588333,10.4687423 C10.60875,8.92235052 8.42125,9.23162887 5.81708333,10.3656495"></path>
                                <path d="M12.1588333,14.6955464 C10.7129167,13.3553402 8.72133333,13.2522474 4.97133333,14.901732"></path>
                                <path d="M15.2962083,3.14915464 L15.4212083,21.3965773"></path>
                            </g>
                        </g>
                    </g>
                </g>
            </g>
        </g>
    </g>
</svg>