<?xml version="1.0" encoding="UTF-8"?>
<svg width="24px" height="23px" viewBox="0 0 24 23" version="1.1" xmlns="http://www.w3.org/2000/svg" xmlns:xlink="http://www.w3.org/1999/xlink">
    <!-- Generator: Sketch 51 (57462) - http://www.bohemiancoding.com/sketch -->
    <title>phone</title>
    <desc>Created with Sketch.</desc>
    <defs></defs>
    <g id="小程序2" stroke="none" stroke-width="1" fill="none" fill-rule="evenodd">
        <g id="培训班详情" transform="translate(-10.000000, -227.000000)">
            <rect fill="#ffffff" x="0" y="0" width="375" height="667"></rect>
            <g id="Group-3-Copy" transform="translate(0.000000, 217.000000)">
                <g id="Phone-2" transform="translate(10.000000, 10.000000)">
                    <rect id="Container" x="1.13686838e-13" y="0.188323764" width="23.7525773" height="23.7525773"></rect>
                    <g id="Shape" transform="translate(4.948454, 2.226804)" stroke="#00C58C" stroke-linecap="round" stroke-linejoin="round">
                        <path d="M10.5723711,17.7203134 L9.32872577,15.3586639"></path>
                        <path d="M3.86706804,6.13613196 L2.51675876,3.45261031"></path>
                        <path d="M4.62789278,10.3208165 C3.57795464,8.50322474 3.3979299,6.87634639 3.7902433,6.0580701 C4.64456907,6.42898144 6.29433402,5.81609072 6.44016495,5.29318763 C6.56615258,4.8414433 4.37611546,0.394292784 3.70772784,0.254449485 C3.03934021,0.114630928 1.08004948,1.40016495 0.647331959,2.4126433 C0.228668041,3.39221443 -1.14054433,5.48734021 2.27282474,11.7005691 C5.54538557,17.6574433 8.95897732,18.176066 9.78811546,18.3039588 C10.6459299,18.4363052 12.5542021,17.5400165 12.8664742,16.9155959 C13.1787464,16.2912 10.890532,12.3624742 10.427134,12.248833 C9.75894433,12.0849402 8.53670103,13.2430021 8.41266804,13.6093361 C7.52516289,13.4895588 6.01284124,12.718367 4.62789278,10.3208165 L4.62789278,10.3208165 Z" stroke-width="2"></path>
                    </g>
                </g>
            </g>
        </g>
    </g>
</svg>